<svg width="13" height="9" viewBox="0 0 13 9" fill="none" xmlns="http://www.w3.org/2000/svg">
<path d="M12.7922 2.32085L7.00169 8.11122C6.86788 8.24503 6.68948 8.31848 6.49511 8.31848C6.30466 8.31848 6.12615 8.24503 5.99255 8.11122L0.20747 2.32635C0.0736658 2.19244 -5.51162e-07 2.01393 -5.67812e-07 1.82347C-5.84462e-07 1.63302 0.0735601 1.4544 0.20747 1.32059L0.633509 0.894555C0.767313 0.76075 0.94593 0.686873 1.13638 0.686873C1.32684 0.686873 1.50535 0.76075 1.63926 0.894554L6.49712 5.75242L11.3604 0.888953C11.4942 0.755254 11.6727 0.681482 11.8632 0.681482C12.0537 0.681482 12.2321 0.755254 12.366 0.888953L12.7922 1.3152C13.0693 1.59243 13.0693 2.04362 12.7922 2.32085Z" fill="#B0B0B0"/>
</svg>
