<svg width="13" height="9" viewBox="0 0 13 9" fill="none" xmlns="http://www.w3.org/2000/svg">
    <path d="M0.207842 6.67915L5.99831 0.888778C6.13212 0.754974 6.31052 0.681519 6.50489 0.681519C6.69534 0.681519 6.87385 0.754974 7.00745 0.888778L12.7925 6.67365C12.9263 6.80756 13 6.98607 13 7.17653C13 7.36698 12.9264 7.5456 12.7925 7.67941L12.3665 8.10545C12.2327 8.23925 12.0541 8.31313 11.8636 8.31313C11.6732 8.31313 11.4946 8.23925 11.3607 8.10545L6.50288 3.24758L1.63963 8.11105C1.50583 8.24475 1.32732 8.31852 1.13676 8.31852C0.946301 8.31852 0.767896 8.24475 0.633986 8.11105L0.207842 7.6848C-0.0692787 7.40757 -0.0692787 6.95638 0.207842 6.67915Z" fill="#B0B0B0" />
</svg>