<?xml version="1.0" encoding="utf-8"?>
<!-- Generator: Adobe Illustrator 25.0.0, SVG Export Plug-In . SVG Version: 6.00 Build 0)  -->
<svg version="1.1" id="Layer_1" xmlns="http://www.w3.org/2000/svg" xmlns:xlink="http://www.w3.org/1999/xlink" x="0px" y="0px"
	 viewBox="0 0 12 12" style="enable-background:new 0 0 12 12;" xml:space="preserve">
<style type="text/css">
	.st0{fill:#A5A5A5;}
</style>
<g>
	<g>
		<path class="st0" d="M10.47,0.87c-1.17-1.17-3.06-1.17-4.23,0L1.79,5.33c-0.14,0.14-0.14,0.36,0,0.5c0.14,0.14,0.36,0.14,0.5,0
			l4.45-4.45c0.86-0.86,2.37-0.86,3.23,0c0.89,0.89,0.89,2.34,0,3.23l-6.22,6.29c-0.53,0.53-1.46,0.53-1.99,0
			c-0.55-0.55-0.55-1.44,0-1.99l5.97-6.04c0.2-0.2,0.55-0.2,0.75,0c0.21,0.21,0.21,0.54,0,0.75L2.76,9.4c-0.12,0.12-0.12,0.38,0,0.5
			c0.14,0.14,0.36,0.14,0.5,0l5.72-5.79c0.48-0.48,0.48-1.26,0-1.74C8.51,1.9,7.7,1.9,7.24,2.37L1.27,8.4
			c-0.82,0.82-0.82,2.17,0,2.98C1.67,11.79,2.2,12,2.76,12s1.09-0.21,1.49-0.61l6.22-6.29C11.63,3.94,11.63,2.04,10.47,0.87z"/>
	</g>
</g>
</svg>
