<?xml version="1.0" encoding="utf-8"?>
<!-- Generator: Adobe Illustrator 25.0.0, SVG Export Plug-In . SVG Version: 6.00 Build 0)  -->
<svg version="1.1" id="Layer_1" xmlns="http://www.w3.org/2000/svg" xmlns:xlink="http://www.w3.org/1999/xlink" x="0px" y="0px"
	 viewBox="0 0 12 12" style="enable-background:new 0 0 12 12;" xml:space="preserve">
<style type="text/css">
	.st0{fill:#A5A5A5;}
</style>
<path class="st0" d="M7.05,6l4.48-4.48c0.29-0.29,0.29-0.76,0-1.05c-0.29-0.29-0.76-0.29-1.05,0L6,4.95L1.52,0.47
	c-0.29-0.29-0.76-0.29-1.05,0c-0.29,0.29-0.29,0.76,0,1.05L4.95,6l-4.48,4.48c-0.29,0.29-0.29,0.76,0,1.05
	c0.15,0.15,0.34,0.22,0.53,0.22s0.38-0.07,0.53-0.22L6,7.05l4.48,4.48c0.15,0.15,0.34,0.22,0.53,0.22c0.19,0,0.38-0.07,0.53-0.22
	c0.29-0.29,0.29-0.76,0-1.05L7.05,6z"/>
</svg>
