<svg width="138" height="138" viewBox="0 0 138 138" fill="none" xmlns="http://www.w3.org/2000/svg">
    <path d="M68.5781 137.156C30.7633 137.156 0 106.393 0 68.5781C0 30.7633 30.7633 0 68.5781 0C106.393 0 137.156 30.7633 137.156 68.5781C137.156 106.393 106.393 137.156 68.5781 137.156ZM68.5781 20.17C41.8851 20.17 20.17 41.8851 20.17 68.5781C20.17 95.2712 41.8851 116.986 68.5781 116.986C95.2712 116.986 116.986 95.2712 116.986 68.5781C116.986 41.8851 95.2712 20.17 68.5781 20.17Z" fill="#F0BC5E" />
    <path d="M93.9644 41.5222L52.4424 83.0443L43.1924 73.7943L37.4883 79.4984L52.4424 94.4524L99.6685 47.2263L93.9644 41.5222Z" fill="black" />
    <path d="M68.5778 112.952C44.1116 112.952 24.2038 93.0443 24.2038 68.578C24.2038 58.1098 27.9352 47.9441 34.7083 39.9446L28.5564 34.7286C20.5489 44.1844 16.1357 56.2057 16.1357 68.578C16.1357 97.4938 39.6621 121.02 68.5778 121.02C80.9501 121.02 92.9715 116.607 102.427 108.599L97.2112 102.448C89.2118 109.221 79.0461 112.952 68.5778 112.952Z" fill="black" />
    <path d="M68.5779 16.136C56.2056 16.136 44.1842 20.5492 34.7285 28.5567L39.9445 34.7086C47.9439 27.9355 58.1096 24.204 68.5779 24.204C93.0441 24.204 112.952 44.1118 112.952 68.5781C112.952 79.0463 109.221 89.212 102.447 97.2115L108.599 102.427C116.607 92.9717 121.02 80.9504 121.02 68.5781C121.02 39.6623 97.4936 16.136 68.5779 16.136Z" fill="black" />
</svg>